<svg width="49" height="49" viewBox="0 0 49 49" fill="none" xmlns="http://www.w3.org/2000/svg">
<path d="M47 24.5C47.0038 27.4636 46.4203 30.3986 45.2831 33.1353C44.146 35.8721 42.4778 38.3564 40.3749 40.4446C38.2892 42.5266 35.8137 44.1772 33.0898 45.302C30.3659 46.4268 27.447 47.0038 24.5 47C12.0733 47 2.00002 36.9267 2.00002 24.5C1.99215 18.7307 4.20825 13.1804 8.18752 9.00314C10.2871 6.78756 12.8168 5.02373 15.6217 3.81957C18.4265 2.61542 21.4476 1.99627 24.5 2.00002C27.447 1.9962 30.3659 2.57319 33.0898 3.69799C35.8137 4.8228 38.2892 6.47338 40.3749 8.55539C42.4778 10.6436 44.146 13.1279 45.2831 15.8647C46.4203 18.6014 47.0038 21.5364 47 24.5V24.5Z" stroke="white" stroke-width="4" stroke-linecap="round" stroke-linejoin="round"/>
<path d="M46.9998 24.5C43.7171 24.5 37.55 21.9928 26.5552 26.8209C17.7498 30.6875 11.3745 36.6849 8.5957 40.4154" stroke="white" stroke-width="4" stroke-linecap="round" stroke-linejoin="round"/>
<path d="M16.0625 3.63576C19.5837 6.88588 27.2675 15.1614 30.125 23.375C32.9825 31.5897 34.04 41.69 34.6925 44.5643" stroke="white" stroke-width="4" stroke-linecap="round" stroke-linejoin="round"/>
<path d="M2.17334 21.6875C6.42359 21.944 17.6747 22.1746 24.8747 19.1C32.0747 16.0254 38.2701 10.37 40.3952 8.57564M3.68759 33.0646C5.67019 37.8637 9.24588 41.8331 13.8126 44.3045" stroke="white" stroke-width="4" stroke-linecap="round" stroke-linejoin="round"/>
<path d="M2.00002 24.5C1.99215 18.7307 4.20825 13.1804 8.18752 9.00314C10.2871 6.78756 12.8168 5.02373 15.6217 3.81957C18.4265 2.61541 21.4476 1.99627 24.5 2.00002M33.5 3.87202C36.0623 4.99312 38.3936 6.58128 40.3749 8.55539C42.4778 10.6436 44.146 13.1279 45.2831 15.8647C46.4203 18.6014 47.0038 21.5364 47 24.5C47 27.2709 46.4994 29.9236 45.5825 32.375M24.5 47C27.447 47.0038 30.3659 46.4268 33.0898 45.302C35.8137 44.1772 38.2892 42.5266 40.3749 40.4446" stroke="white" stroke-width="4" stroke-linecap="round" stroke-linejoin="round"/>
</svg>
