<svg width="50" height="38" viewBox="0 0 50 38" fill="none" xmlns="http://www.w3.org/2000/svg">
<path d="M49.8125 2.1884L27.0625 24.8447C26.477 25.4267 25.685 25.7534 24.8594 25.7534C24.0338 25.7534 23.2418 25.4267 22.6562 24.8447L0.109375 2.36028C0.0400616 2.61503 0.00331045 2.87753 0 3.14153V34.3915C0 35.2203 0.32924 36.0152 0.915291 36.6012C1.50134 37.1873 2.2962 37.5165 3.125 37.5165H46.875C47.7038 37.5165 48.4987 37.1873 49.0847 36.6012C49.6708 36.0152 50 35.2203 50 34.3915V3.14153C49.9876 2.81599 49.9243 2.49439 49.8125 2.1884ZM5.26563 34.3915H3.09375V32.1572L14.4531 20.8915L16.6562 23.0947L5.26563 34.3915ZM46.8438 34.3915H44.6562L33.2656 23.0947L35.4688 20.8915L46.8281 32.1572L46.8438 34.3915Z" fill="white"/>
<path d="M47.5 0.0164594C47.287 -0.00548645 47.0724 -0.00548645 46.8594 0.0164594H3.10937C2.82898 0.0207799 2.55043 0.0628239 2.28125 0.141459L24.8594 22.6258L47.5 0.0164594Z" fill="white"/>
</svg>
