<svg width="50" height="41" viewBox="0 0 50 41" fill="none" xmlns="http://www.w3.org/2000/svg">
<path d="M50 4.82145C48.1613 5.63622 46.186 6.18673 44.1095 6.43556C46.2521 5.15351 47.8551 3.1357 48.6193 0.758651C46.6063 1.95435 44.4031 2.79599 42.1056 3.24698C40.5606 1.59734 38.5142 0.50393 36.2841 0.136511C34.054 -0.230908 31.7649 0.14822 29.7724 1.21503C27.7798 2.28185 26.1952 3.97666 25.2646 6.03634C24.3339 8.09602 24.1093 10.4053 24.6256 12.6057C20.5467 12.4009 16.5565 11.3408 12.9138 9.49402C9.27116 7.64727 6.05752 5.05523 3.48146 1.88611C2.60063 3.40553 2.09416 5.16718 2.09416 7.04333C2.09318 8.7323 2.5091 10.3954 3.30503 11.8851C4.10095 13.3747 5.25227 14.6449 6.65683 15.5829C5.02791 15.5311 3.43494 15.091 2.01048 14.2991V14.4312C2.01032 16.8001 2.82972 19.096 4.32966 20.9295C5.82959 22.763 7.91767 24.0211 10.2396 24.4903C8.72849 24.8992 7.14423 24.9595 5.60645 24.6664C6.26155 26.7047 7.53765 28.4871 9.25607 29.764C10.9745 31.041 13.0492 31.7487 15.1898 31.7879C11.5561 34.6405 7.06837 36.1878 2.44869 36.181C1.63036 36.1812 0.812729 36.1334 0 36.0379C4.68924 39.0529 10.1478 40.653 15.7227 40.6468C34.5944 40.6468 44.911 25.0166 44.911 11.4607C44.911 11.0203 44.9 10.5754 44.8802 10.135C46.8869 8.68381 48.6191 6.88676 49.9956 4.82806L50 4.82145Z" fill="white"/>
</svg>
